# xmcd
#
# Track frame offsets:
#	150
#	15599
#	28509
#	41454
#	51815
#	64043
#	83780
#	95181
#	106006
#	116404
#	128481
#	140051
#	158156
#	167729
#	178660
#	184854
#
# Disc length: 2619 seconds
#
# Revision: 3
# Processed by: cddbd v1.5.2PL0 Copyright (c) Steve Scherf et al.
# Submitted via: audiograbber 1.83.01
#
DISCID=cc0a3910
DTITLE=Various Artist - Country mania [CD 5)
DYEAR=2012
DGENRE=Country
TTITLE0=Johnny Cash - Darlin companion
TTITLE1=Willie Nelson - Any old arms won't do
TTITLE2=Johnny Cash - Folsom Prison blues
TTITLE3=Willie Nelson - I feel sorry for him
TTITLE4=Johnny Cash and The Tennessee Two - Home of the blues
TTITLE5=Kenny Rogers - Lay it down
TTITLE6=Johnny Cash - Don't make me go
TTITLE7=Johnny Cash - You win again
TTITLE8=Johnny Cash - Get rhythm
TTITLE9=Kenny Rogers - What am I gonna do
TTITLE10=Johnny Cash - Peace in the valley
TTITLE11=Kenny Rogers - Something's burning
TTITLE12=Willie Nelson - Right from wrong
TTITLE13=Kenny Rogers - She even woke me up to say goodbye
TTITLE14=Nashville 10 - Singing my song
TTITLE15=Kenny Rogers - Poem for my little lady
EXTD=
EXTT0=
EXTT1=
EXTT2=
EXTT3=
EXTT4=
EXTT5=
EXTT6=
EXTT7=
EXTT8=
EXTT9=
EXTT10=
EXTT11=
EXTT12=
EXTT13=
EXTT14=
EXTT15=
PLAYORDER=
